<svg width="41" height="78" viewBox="0 0 41 78" fill="none" xmlns="http://www.w3.org/2000/svg">
<path d="M0 7.5C0 3.35786 3.35786 0 7.5 0H33.5C37.6421 0 41 3.35786 41 7.5C41 11.6421 37.6421 15 33.5 15H7.5C3.35786 15 0 11.6421 0 7.5Z" fill="url(#paint0_linear_19_256)"/>
<path d="M0 32C0 27.5817 3.58172 24 8 24H33C37.4183 24 41 27.5817 41 32C41 36.4183 37.4183 40 33 40H8C3.58172 40 0 36.4183 0 32Z" fill="url(#paint1_linear_19_256)"/>
<path d="M28 0H41V65C41 72.1797 35.1797 78 28 78V0Z" fill="url(#paint2_linear_19_256)"/>
<path d="M0 33.5C0 29.9101 2.91015 27 6.5 27C10.0899 27 13 29.9101 13 33.5V78C5.8203 78 0 72.1797 0 65V33.5Z" fill="url(#paint3_linear_19_256)"/>
<defs>
<linearGradient id="paint0_linear_19_256" x1="20.5" y1="0" x2="20.5" y2="78" gradientUnits="userSpaceOnUse">
<stop stop-color="#003BFF"/>
<stop offset="1" stop-color="#192D6D"/>
</linearGradient>
<linearGradient id="paint1_linear_19_256" x1="20.5" y1="0" x2="20.5" y2="78" gradientUnits="userSpaceOnUse">
<stop stop-color="#003BFF"/>
<stop offset="1" stop-color="#192D6D"/>
</linearGradient>
<linearGradient id="paint2_linear_19_256" x1="20.5" y1="0" x2="20.5" y2="78" gradientUnits="userSpaceOnUse">
<stop stop-color="#003BFF"/>
<stop offset="1" stop-color="#192D6D"/>
</linearGradient>
<linearGradient id="paint3_linear_19_256" x1="20.5" y1="0" x2="20.5" y2="78" gradientUnits="userSpaceOnUse">
<stop stop-color="#003BFF"/>
<stop offset="1" stop-color="#192D6D"/>
</linearGradient>
</defs>
</svg>
